# xmcd CD database file
#
# Track frame offsets:
#	150
#	16425
#	32962
#	47062
#	76875
#	94950
#	125000
#	157135
#	181350
#	207150
#
# Disc length: 3126 seconds
#
# Revision: 0
# Processed by: cddbd v1.5.1PL0 Copyright (c) Steve Scherf et al.
# Submitted via: CDex 1.51
#
DISCID=870c340a
DTITLE=Various Artist - 生まれくる幼子のために(disk2)
DYEAR=1991
DGENRE=Instrumental
TTITLE0=シューベルトの子守歌(宗次郎)
TTITLE1=夢路より(宗次郎)
TTITLE2=モーツァルトの子守歌(宗次郎)
TTITLE3=森の童遊び(柴田敬一)
TTITLE4=幼心への憧憬(柴田敬一)
TTITLE5=祈り(喜多郎)
TTITLE6=オリオン(喜多郎)
TTITLE7=絵巻(パノラマ)(喜多郎)
TTITLE8=安息の地(柴田敬一)
TTITLE9=夜のとばり(柴田敬一)
EXTD=YEAR: 1991
EXTT0=
EXTT1=
EXTT2=
EXTT3=
EXTT4=
EXTT5=
EXTT6=
EXTT7=
EXTT8=
EXTT9=
PLAYORDER=
